<?xml version="1.0" encoding="UTF-8"?><svg id="Layer_1" xmlns="http://www.w3.org/2000/svg" viewBox="0 0 1046.24 548.21"><path d="M290.72,367.82c2.29-9.29,4.6-18.59,7.36-27.75,1.71-5.68,4.39-11.07,4.49-17.17,.01-.63,.31-1.25,.49-1.87,1.44-5.11,2.97-10.21,4.27-15.35,.36-1.43,.61-3.37-.07-4.47-1.48-2.42-1.05-4.74-.58-7.13,2.1-10.54,4.5-21.02,6.31-31.61,1-5.85,1.27-11.84,1.51-17.79,.21-5.16-.13-10.34-.16-15.51-.02-3.33,.15-6.66,.09-9.99-.03-1.54-.29-3.1-.61-4.61-.84-4.03-.8-8.46-3.49-11.78-1.75-2.17-2.44-4.49-2.97-7.01-.5-2.41-.78-4.86-1.32-7.26-.48-2.1-.93-4.13-2.41-5.99-2.73-3.42-4.89-7.29-7.47-10.85-1.96-2.71-3.91-5.52-6.36-7.75-6.24-5.7-13.91-8.96-21.85-11.49-2.42-.77-5.07-1.05-7.62-1.11-8.32-.2-16.49,.8-24.59,2.85-3.97,1.01-8.08,1.41-12.28,.82-4.48-.63-9.03-.85-13.56-1.02-10.13-.38-20.13,.98-30.13,2.41-1.66,.24-3.37,.19-5,.53-4.04,.85-8.07,1.77-12.07,2.8-5.26,1.35-10.49,2.83-15.73,4.27-1.99,.55-3.94,1.26-5.94,1.73-5.07,1.18-9.88,3.02-14.49,5.44-2.97,1.56-6.05,2.92-9.01,4.5-4.19,2.24-8.66,4.16-12.39,7.01-4.28,3.28-8.02,7.3-11.72,11.26-2,2.14-3.49,4.78-5.11,7.25-1.13,1.72-2.07,3.56-3.13,5.32-.98,1.63-2.22,3.06-2.29,5.18-.06,1.74-1.01,2.83-2.89,3.63-1.61,.68-3.23,2.4-3.88,4.04-.78,1.99-2.19,3.1-3.59,4.38-1.21,1.11-2.43,2.22-3.63,3.35-.56,.53-.98,1.34-1.64,1.61-2.53,1.04-4.13,2.64-5.37,5.24-2.1,4.42-4.95,8.47-7.4,12.73-1.14,1.98-1.64,4.53-3.21,6-3.15,2.96-3.97,6.43-3.98,10.45-.02,5.83,2.87,10.69,6.3,14.72,4.14,4.87,9.25,9.04,14.42,12.87,4.59,3.4,10.4,4.41,15.96,4.11,7.64-.41,14.99-2.74,22.21-5.32,7.19-2.57,12.5-8.14,18.9-11.98,2.95-1.77,5.78-3.61,8.99-4.9,6.23-2.49,12.57-4.84,17.13-10.17,1.26-1.47,2.65-2.83,4.16-4.42,1.71,1.34,3.02,.78,4.45-.81,1.64-1.82,3.31-3.62,4.98-5.42,19.55-9.36,42.72-8.59,62.31,2.82,4.77,3.98,8.34,9.22,10.09,15.63,1.17,4.27,1.55,8.65,1.62,13.05-1.42,1.9-3.04,3.62-4.91,5.1-1.43,1.13-3.04,2.14-4.8,2.44,.48-.08-.28-.24-.72-.27-.38-.34-1.31-.92-.53-.22-2.62-2.34-5.13-4.67-7.91-6.59-.38-1.48-.9-2.91-1.53-4.28-.09-.74-.2-1.46-.35-2.13-.69-3.22-1.16-4.86-3.14-6.72-1.99-1.87-5.1-3.37-8.06-3.91-.77-.14-1.55-.22-2.33-.26-11.32-4.76-23.01-1.36-33.57,3.81-10.27,5.03-20.28,10.69-30.38,16.04-1.34,.71-2.68,1.44-4.02,2.16-.64,.24-1.29,.47-1.93,.71-11.29,4.16-23.44,7.63-33.88,13.71-5.63,3.28-10.96,7.17-16.21,11.15-1.49,.53-2.98,1.06-4.46,1.62-4.94,1.86-9.84,3.99-14.44,6.56-5.59,3.13-9.36,8.6-14.66,12.2-.62,.42-1.06,1.13-1.54,1.74-4.52,5.89-6.88,12.87-9.74,19.59-1.71,4.02-3.29,8.1-5.01,12.12-1.32,3.08-2.78,6.09-4.15,9.14-4.75,10.56-5.7,21.71-5.23,33.09,.17,4.26,.1,8.53,.38,12.78,.5,7.65,1.76,15.05,5.23,22.13,3.34,6.83,7.63,12.89,12.07,18.97,4.37,5.99,9.94,10.23,16.08,13.7,.37,.73,.76,1.45,1.2,2.15,6.36,10.19,17.12,14,28.59,14.93,10.82,.88,21.77-.02,32.46-2.27,3.96,.48,8.08,.36,11.8,.3,7.9-.11,15.7-1.3,22.91-4.6,13.23-6.05,21.63-20.77,28.76-32.81,6.96-11.74,12.73-24.22,17.36-37.08,1.09,10.41,4.15,20.98,8.17,30.6,0,3.21,.42,6.36,1.9,9.45,2.79,5.85,5.39,11.83,10.19,16.38,1.45,1.38,3.33,2.64,5.23,3.14,5.12,1.34,10.35,2.22,15.53,3.31,3.53,.74,6.92,.62,10.24,.05,9.3-.26,16.68-3.42,22.35-8.46,.97-.44,1.94-.89,2.9-1.37,.63-.32,1.3-1.03,1.48-1.69,.22-.83,.45-1.65,.68-2.48,8.05-10.84,11.1-26.44,10.41-41.33,.5-2.26,.98-4.53,1.39-6.81,.53-2.92,.98-5.95-.43-8.85-.33-.68-.4-1.5-.54-2.26-.9-4.56-1.58-9.18-2.73-13.68-1.14-4.49-1.38-8.92-.56-13.45,.78-4.33,1.31-8.72,2.36-12.99Zm-140.84-3.27c-.58-.64-1.05-1.16-1.9-2.09-.14,3.61,.72,6.6,1.36,8.84-1.61,3.35-3.14,6.03-4.21,8.88-2.51,6.7-6.59,12.41-10.64,18.22-5.7,8.2-13.81,11.97-23.09,14.04-3.97,.89-5.01,.42-6.77-3.21-.39-.8-.61-1.69-.87-2.56-2.42-8.09-2.55-16.28-.98-24.54,.97-5.08,2.01-10.16,2.73-15.27,.92-6.55,3.99-11.99,8.43-16.62,1.92-2,4.39-3.77,6.94-4.81,4.04-1.64,8.34-2.7,12.6-3.75,1.4-.35,2.99,.07,4.49,.16,.63,.04,1.45,.45,1.86,.19,2.19-1.39,4.65-.88,6.99-1.15,.5-.06,1.29,.18,1.53,.55,.54,.83,1.12,1.81,1.17,2.76,.22,4,.28,8.01,.35,12.01,.05,2.69,0,5.37,0,8.34Zm23.27-33.99c-.15-.51-.29-1.02-.44-1.52,.31-.07,.61-.13,.92-.2,.04,.54,.08,1.07,.13,1.61-.2,.04-.4,.08-.61,.11Z"/><path d="M503.49,321.77c-.21-2.16-.68-4.32-1.28-6.41-.53-1.85-1.36-3.62-2.14-5.4-.62-1.41-1.07-3.05-2.09-4.1-3.12-3.2-3.7-7.25-4.51-11.32-2.28-11.52-5.49-22.66-13.73-31.61-.43-.47-.79-1.04-1.08-1.61-2.57-5.03-6-9.35-10.44-12.89-1-.8-1.79-1.87-2.7-2.79-2.74-2.76-5.5-5.5-9.21-7-6.17-2.5-12.65-3.93-19.18-4.81-9.86-1.33-19.67-.58-29.27,2.27-1.43,.42-2.89,.77-4.71,1.24,0-1.3-.1-2.05,.02-2.77,.46-2.68,1.05-5.34,1.49-8.02,1.69-10.21,3.32-20.43,5.01-30.64,.38-2.28,.79-4.58,1.39-6.81,1.45-5.37,3.17-10.67,4.51-16.06,2.27-9.16,4.38-18.36,6.47-27.57,2.24-9.84,4.7-19.65,6.44-29.59,1.3-7.38,1.9-14.91,2.29-22.4,.37-7.12-.05-14.25-3.97-20.63-.81-1.31-1.45-2.73-2.22-4.07-2.34-4.03-4.62-8.1-7.1-12.03-.71-1.13-2.22-2.78-3.05-2.61-2.52,.51-3.8-1.28-5.58-1.94-1.49,.31-2.98,.5-4.4,.27-3.66-.61-7.28-.71-10.71,.78-3.05,1.32-5.74,3.48-9.24,3.7-.46,.03-1,.4-1.31,.78-1.58,1.96-3.82,2.78-6.12,3.03-4.11,.45-6.6,3.07-8.31,6.28-3.63,6.84-7.41,13.69-10.17,20.9-3.42,8.93-5.77,18.22-7.24,27.76-1.95,12.65-4.65,25.18-6.88,37.79-.97,5.48-1.7,11.01-2.35,16.54-.5,4.22-.44,8.51-1.1,12.69-1.02,6.48-2.56,12.89-3.67,19.36-1.16,6.76-2.03,13.57-3.11,20.34-.69,4.35-1.43,8.63-1.12,13.11,.31,4.5,0,9.04-.07,13.56-.12,7.88-.19,15.76-.42,23.64-.07,2.44-.58,4.87-.98,7.28-.25,1.53-.72,3.02-1.02,4.54-2.26,11.55-4.63,23.08-6.71,34.65-.95,5.3-1.37,10.7-1.99,16.06-.06,.48,.13,.98,.23,1.73,3.29-3,.27-7.12,2.4-10.74-.26,4.61-.48,8.55-.7,12.44-2.54,.51-3.13,.92-3.11,2.59,.06,4.23-1.34,8.23-1.87,12.36-.4,3.13-.97,6.38-.81,9.48-.84,4.23-1.52,8.49-2.09,12.78-.21,.51-.28,1.01-.19,1.47-1.92,15.36-2.36,31-3.23,46.63-.3,.63-.35,1.33-.12,2.16-.03,.44-.05,.88-.08,1.32-.15,2.41-.31,4.82-.51,7.23-.5-.14-.96-.27-1.58-.44,1.11,3.22-.14,5.91-.92,8.78-1.75,6.47-4.18,12.81-4.09,19.7,.03,2.14-.42,4.29-.71,6.42-.24,1.77-1.1,3.66-.74,5.28,0,.04,.01,.08,.02,.12-.6,1.82-1.18,3.66-1.73,5.51-.21-.02-.42-.04-.62-.06v1.36c.08,0,.16,0,.25,0-3.3,11.66-4.6,23.57,4.46,33.74,6.02,6.76,15.72,9.94,24.38,11.51,5.96,1.08,11.8,1.47,17.65,1.26,1.38,.49,2.75,1.16,4.17,1.3,2.03,.19,4.3-.64,6.11-.01,3.29,1.14,5.82-.08,8.45-1.5,1.55-.83,2.79-2.01,4.87-2.03,1,0,2.63-1.86,2.87-3.09,1.2-6.33,2.72-12.66,2.11-19.21-.54-5.79-1.03-11.59-1.32-17.4-.21-4.21-.04-8.43-.04-12.65,.27-.04,.54-.08,.81-.12,.69,.75,1.3,1.62,2.1,2.24,3.78,2.91,6.3,7.7,11.89,7.96,.58,.03,1.16,.54,1.7,.9,3.56,2.35,7.03,4.85,10.68,7.06,3.86,2.34,7.76,4.46,12.48,5.04,10.24,1.26,20.12,.31,29.88-2.99,3.85-1.3,7.58-2.67,10.54-5.57,1.21-1.19,2.15-2.9,3.59-3.58,8.14-3.81,12.74-11.08,17.91-17.81,3.38-4.39,5.46-9.65,9.3-13.78,1.56-1.68,2.7-3.77,3.89-5.76,2.81-4.71,4.44-9.84,5.53-15.21,.92-4.54,2.53-8.95,3.3-13.51,1.23-7.25,2.87-14.42,3.03-21.87,.17-8.13,2.4-16.07,2.74-24.28,.35-8.28,1.42-16.54,.9-24.84-.53-8.5-1.38-16.98-2.2-25.46Zm-73.78,91.58c-.42,3.34-.21,6.75-2.24,9.68-.49,.71-1.09,1.34-1.89,2.31-.75-1.05-1.3-1.83-2.16-3.04-1.18,1.29-2.33,2.54-3.7,4.04-3.19-.93-6.11-2.78-7.86-6.29-3.38-6.82-6.98-13.54-10.21-20.44-2.02-4.32-1.75-9.08-1.8-13.75-.04-3.19-.47-6.38-.8-9.56-.31-2.95-.64-5.91-1.1-8.84-.43-2.68-.95-5.3-3.42-7.15-.7-.52-1.03-2.17-.82-3.15,1.29-5.93,.35-12.13,2.45-17.99,1.16-3.25,1.73-6.78,2.16-10.23,.89-6.99,5.03-11.66,10.41-15.72,4.05,1.87,5.98,5.61,7.48,9.14,2.47,5.77,4.48,11.81,5.92,17.92,1.95,8.31,3.34,16.76,4.67,25.2,1.18,7.54,2.09,15.12,2.86,22.71,.86,8.38,1.1,16.76,.04,25.17Z"/><path d="M1016.67,326.15c-2.04-10.96-8.85-18.3-18.02-23.66-6.31-3.69-13.4-5.54-20.56-6.91-11.95-2.29-22.68,4.83-26.43,14.45-2.06,5.29-4.08,10.66-4.7,16.35-.36,3.26-.97,6.63-.93,9.87-2.46,3.1-5.42,5.9-8.54,8.61-2.76,2.39-6.59,5.55-9.33,6.62-3.21,1.26-6.89,1.4-9.82,.77-16.48-3.55-22.34-20.81-22.04-36.63,1.02-3,2.03-6,3-9.01,1.7-5.29,3.17-10.68,4.45-16.09,1.79-7.54,3.4-15.13,4.92-22.74,1.55-7.73,2.48-15.63,4.5-23.23,1.68-6.32,2.29-12.71,3.11-19.11,.11-.83,.33-1.65,.55-2.7,1.03,.35,1.73,.61,2.44,.83,2.71,.84,5.38,2.15,8.14,2.38,4.72,.38,8.72,2.4,12.69,4.56,3.07,1.67,5.9,3.76,8.91,5.56,5.58,3.34,11.26,6.34,17.95,7.01,4.27,.42,8.34,.19,12.15-.85,6.84,1.55,13.97,2.01,20.63-.35,7.53-2.67,13.8-8.08,17.59-15.13,6.69-12.43,3.62-24.92-3.33-35.68-1.34-3.58-3.43-6.84-6.89-9.66-1.18-.96-2.39-1.81-3.62-2.57-5.77-4.52-13.04-6.86-20.47-6.22-8.73,.76-16.29,4.61-24.58,7.04-11.32,3.32-23.23,2.98-34.23-.65,.24-.71,.47-1.43,.71-2.14,.45-1.33,1.36-2.52,1.7-3.86,1.56-6.27,2.56-12.7,4.54-18.83,5.03-15.57,8.09-31.61,12-47.44,2.5-10.1,3.41-20.43,4.73-30.71,1.07-8.36,2.21-16.73,3.93-24.97,1.24-5.95,1.87-11.49-.45-17.41-1.79-4.56-4.41-8.41-8.18-11.06-3.89-2.74-9.02-2.68-13.56-4.02-.42-.13-.98,.25-1.49,.35-2.34,.46-4.68,.9-7.06,1.36-.21,.32-.5,1-1,1.44-2.49,2.22-5.39,4.08-7.49,6.62-4.53,5.5-8.3,11.56-11.17,18.11-.7,1.59-1,3.53-.86,5.26,.05,.67,.22,1.48,.66,2.03-5.87,12.78-8.2,27.13-9.29,41.12-1.66,21.3-1.53,42.85-1.47,64.2,0,3.33,1.14,5.95,2.9,7.84-4.18,.47-7.81-.07-11.16-2.25-.84-.55-1.94-.69-2.91-1.05-4.61-1.72-9.51-2.93-13.76-5.29-10.75-5.99-21.2-12.5-31.78-18.79-.77-.46-1.6-.87-2.45-1.14-4.93-1.57-9.86-3.15-14.83-4.59-2.23-.65-4.53-1.09-6.83-1.46-5.23-.84-10.46-1.93-15.73-2.18-2.52-.12-5.21,1.23-7.66,2.28-2.36,1.01-4.5,2.53-6.78,3.73-2.57,1.35-4.82,2.9-6,5.78-.77,1.88-2.23,3.48-3.07,5.34-.61,1.35-.75,2.92-1.03,4.41-.28,1.49-.42,3-.72,4.48-.18,.86-.89,1.74-.77,2.52,.68,4.58,1.48,9.14,2.39,13.68,.16,.78,.61,1.36,1.33,1.67-.54,7.31,.37,15.02,5.04,20.79,2.77,3.42,6.49,6.04,10.49,8.2,12.86,4.2,25.94,3.58,39.34,3.55,.6,0,1.16,.05,1.7,.13,1.57,0,3.15,.03,4.75,.1,7.01,.32,15.05,.95,21.43,4.05,.08-.07,.17-.14,.26-.22,2.69,.87,5.36,1.77,7.98,2.83,2.8,1.13,4.71,3.33,5.91,6.32,1.12,2.79,1.76,5.63,2.34,8.54,1.22,6.09,2.64,12.15,3.94,18.23,2.01,9.42,1.35,18.59-3.48,27.06-3.89,6.82-5.94,14.21-7.92,21.7-.68,2.58-1.8,5.15-3.2,7.42-2.57,4.16-4.41,8.47-4.72,13.39-.04,.62-.11,1.54-.51,1.8-2.29,1.5-1.66,3.85-2.04,5.96-.38,2.12-.96,4.23-1.73,6.23-.68,1.76-1.94,3.29-2.6,5.05-1.08,2.9-2.32,5.85-2.69,8.88-.37,2.97-3.36,5.22-2.11,8.51-2.21,3.14-2.12,6.76-1.96,10.32,.38,8.26-.11,16.59,1.86,24.74,.48,2.01,.68,4.1,.85,6.16,.63,7.53,2.42,14.7,6.15,21.34,2.92,5.2,5.69,10.48,8.56,15.7,1.72,3.14,3.43,6.29,5.27,9.36,2.52,4.21,5.26,8.29,6.3,13.22,.2,.94,.88,1.9,1.59,2.6,3.88,3.82,7.68,7.74,11.81,11.28,9.26,7.95,19.61,9.15,30.82,4.53,1.74-.72,3.71-.92,5.58-1.3,2.91-.58,6.22-.41,8.67-1.79,5.72-3.22,11.88-5.87,16.56-10.75,1.25-1.3,2.74-2.37,4.12-3.56,5.1-4.4,10.23-8.77,15.27-13.24,1.64-1.45,2.83-3.47,4.59-4.71,6.5-4.55,11.54-10.46,15.84-16.97,6.87-10.38,13.57-20.87,20.05-31.5,4.99-8.19,9.7-16.56,11.49-26.21,.61-3.28,2.05-6.44,2.47-9.73,.45-3.54,1.53-7.08,.54-10.78-1.34-5-2.54-10.06-3.49-15.15Z"/><path d="M849.34,460.89c-1.46-4-3-7.97-4.55-11.94-1.69-4.32-2.99-8.88-5.28-12.87-2.82-4.92-6.34-9.47-9.8-13.99-2.73-3.58-4.5-7.51-5.67-11.8-.95-3.5-2.02-6.97-2.99-10.46-1.03-3.74-2.25-7.44-2.96-11.24-1.43-7.73-.65-15.52,.14-23.25,1.43-14.04,5.92-27.28,10.94-40.37,1.11-2.89,2.27-5.76,3.33-8.67,1.76-4.85,3.48-9.72,5.19-14.59,.85-2.42,1.61-4.88,2.49-7.29,.66-1.82,1.59-3.55,2.14-5.39,1.6-5.33,3.24-10.66,4.56-16.06,1.16-4.77,2.02-9.67,1.33-14.58-.55-3.97-1.28-8-2.63-11.75-2.15-5.95-3.49-12.69-10.09-15.74-3.45-1.59-7.05-2.98-10.72-3.95-2.04,.05-4.06,.19-6.06,.41-.58,.33-1.14,.76-1.64,1.3-.46,.5-1.32,.68-2.03,.9-3.8,1.16-7.25,2.7-8.83,6.8-.31,.8-1.16,1.37-1.68,2.1-1.04,1.46-2.21,2.87-2.99,4.47-3.98,8.22-5.96,17.11-8.56,25.8-1.31,4.38-2.87,8.69-4.37,13.16-.71-.59-1.12-.94-1.37-1.14-.81,2.48-1.38,5.02-2.44,7.33-3.81,8.32-8.67,16.12-12.24,24.59-2.66,6.32-5.96,12.36-8.9,18.56-1.33,2.8-2.37,5.73-3.74,8.5-2.63,5.35-5.53,10.56-8.07,15.95-2.3,4.89-4.17,9.99-6.41,14.91-.86,1.89-1.79,3.76-2.73,5.62-2.06,2.38-4.38,4.52-6.86,6.32-2.39,1.73-5.96,4.17-8.73,3.79-.08-.07-.18-.15-.3-.25-.35-.29-.43-.32-.45-.31,0-.03-.02-.2-.6-1.15-.16-.27-.31-.54-.45-.81,.32-4.63,.82-9.21,1.58-13.78,.77-4.6,1.29-9.24,2.2-13.81,1.01-5.08,2.41-10.08,3.49-15.14,1.19-5.57,1.94-11.25,3.35-16.76,2.41-9.42,5.52-18.64,9.72-27.44,3.12-6.53,6.62-12.89,9.73-19.43,4.07-8.56,7.38-17.31,7.91-27.01,.21-3.84-.48-7.15-1.99-10.46-1.02-2.24-2.25-4.38-3.4-6.56-1.3-2.45-3.33-3.91-6.04-4.46-1.9-.39-3.81-.77-5.7-1.22-4.76-1.13-9.5-2.3-14.26-3.42-.27-.06-.54-.13-.81-.19-6.13-3.57-16.09-2.09-22.04,1.58-12.66,7.82-16.39,21.37-18.6,35.19-2.69,16.81-4.4,33.76-5.16,50.77-.15,.44-.31,.88-.45,1.32-1.68,5.28-3.4,10.57-4.69,15.96-1.32,5.52-2.15,11.16-3.18,16.75-.42,2.27-.5,4.66-1.26,6.81-.89,2.5-2.36,4.84-1.51,7.47-6.9,25.75-14.89,51.18-23.96,76.26-5.29,14.61-9.09,29.99-1.61,44.6,6.49,12.67,19.59,16.88,32.67,16.04,1.15,.92,2.5,1.7,3.87,2.09,5.89,1.71,11.82,4.02,17.95,.7,.54-.29,1.26-.28,1.89-.4,8.59-1.56,16.87-4.05,24.53-8.36,.9-.51,1.89-.86,2.84-1.27,9.23-4,15.57-10.85,18.39-20.37,2.84-9.56,7.2-18.3,12.37-26.71,.56-.92,1.39-1.67,2.3-2.75,.85,4.41,1.11,8.48,2.45,12.15,3.01,8.22,7.07,15.87,15.07,20.53,.78,.45,1.46,1.07,2.2,1.58,3.38,2.36,6.54,5.18,10.2,6.97,8.86,4.35,18.15,7.91,27.95,9.22,6.92,.93,14.16,1.72,20.38-3.34,4.36-3.54,8.36-7.06,7.35-13.45-.08-.5-.11-1.11,.09-1.54,1.95-4.12-.53-7.49-1.82-11.04Z"/><path d="M648.69,380.3c1.1-6.64,2.56-13.31,2.72-20,.18-7.46,1.57-14.65,3.1-21.82,1.13-5.28,3.26-10.34,4.86-15.52,.53-1.72,.9-3.51,1.15-5.3,.87-6.29,1.8-12.55,3.84-18.61,1.74-5.16,3.31-10.38,4.78-15.62,2.03-7.23,1.18-14.66,1.07-22.01-.05-3.49,.03-7.14-.97-10.42-1.83-6.02-3.98-11.91-8.17-16.99-5.87-7.11-11.61-14.29-19.17-19.69-1.83-1.31-4.11-2.61-6.26-2.74-6.05-.36-11.64-1.61-16.67-5.2-7.67-5.47-16.29-7-25.51-5.69-5.11,.72-10.38,.75-15.04,3.46-.33,.19-.74,.21-1.11,.33-3.56,1.13-7.21,2.03-10.64,3.45-4.99,2.06-8.02,6.34-11.13,10.54-3.14,4.24-5.9,9.07-9.91,12.29-7.16,5.74-12.08,12.97-16.17,20.83-3.68,7.08-6.75,14.53-8.28,22.41-1.35,6.95-2.15,14.02-3.16,21.03-.07,.5,.05,1.03,.14,1.54,.75,4.19,1.45,8.34,.68,12.67-.35,1.97,.06,4.13,.4,6.16,.82,4.84,1.97,9.63,2.66,14.48,.68,4.74,1.27,9.53,1.33,14.3,.06,4.69,2.28,9.37,.2,14.1-.14,.31,.11,.77,.09,1.15-.28,5.29-.65,10.59-.83,15.88-.12,3.45,.12,6.91,.04,10.36-.03,1.38-.39,2.77-.76,4.12-.72,2.61-1.82,5.13-2.3,7.78-.37,2.05-.69,4.12-.94,6.2-2.24,9.02-4.09,18.14-5.4,27.33-2.36,16.56-2.44,34.66,7.5,48.99,10.07,14.52,25.08,20.67,42.5,17.96,8.59-1.34,17.6-3.53,25.96-7.02,1.64-.31,3.16-.91,4.76-1.64,5.68-2.6,10.89-5.93,15.89-9.65,3.72-2.77,6.68-6.13,8.59-10.34,1.06-2.35,1.82-4.84,2.83-7.22,3.1-7.28,5.85-14.64,6.37-22.66,.15-2.36,1.06-4.46,2.75-6.28,4.28-4.63,7.53-9.88,9.21-16.02,.48-1.75,1.08-3.47,1.58-5.21,1.34-4.6,2.85-9.15,3.92-13.81,1.36-5.92,2.49-11.9,3.48-17.89Zm-21.09-87.08c-.27,1.05-.56,2.1-.9,3.14,.02-.06-.93,2.52-.8,2.32-.82,1.86-1.82,3.66-2.91,5.38-1.62,2.56-5.03,6.23-7.49,7.97-1.19,.84-2.23,1.85-3.1,2.95-1.15-.06-2.33,.07-3.49,.43-.19,.03-.38,.05-.56,.08-1.16,.21-2.32,.42-3.48,.61-.22,.04-2.07,.26-1.97,.26-.83,.07-1.66,.1-2.5,.13-.5,.01-.84,.03-1.08,.04-.09-.02-.2-.05-.37-.08-.28-.05-1.27-.26-1.33-.31-1.76-1.64-3.16-4.76-4.21-6.87-3.68-7.46-4.5-16-3.51-23.88,.95-7.59,3.92-17.85,8.46-22.43,1.92-1.94,4.27-3.44,6.88-4.11,.28-.03,1.24-.18,1.66-.19,.37,0,.52-.03,.54-.07,.18,.05,.38,.1,.63,.16,1.15,.28,1.98,.59,3.03,1.48,3.64,3.1,8.51,4.25,12.76,2.7,1.21,2.33,2.21,4.74,2.95,7.19,2.38,7.86,2.67,15.73,.79,23.11Z"/><path d="M511.64,460.74c-1.86,4.82-.4,8.32,1.51,11.8-.11-3.07-.17-6.04-.37-8.99-.05-.75-.58-1.47-1.14-2.81Z"/></svg>