<svg xmlns="http://www.w3.org/2000/svg" viewBox="0 0 32 40" x="0px" y="0px"><g><path d="M24.05,17.636,22.636,19.05,26.586,23H22.472a2.986,2.986,0,0,1-2.683-1.658L17.118,16l2.671-5.342A2.986,2.986,0,0,1,22.472,9h4.114l-3.95,3.95,1.414,1.414,5.657-5.657a1,1,0,0,0,0-1.414L24.05,1.636,22.636,3.05,26.586,7H22.472A4.974,4.974,0,0,0,18,9.764l-2,4-2-4A4.974,4.974,0,0,0,9.528,7H2V9H9.528a2.986,2.986,0,0,1,2.683,1.658L14.882,16l-2.671,5.342A2.986,2.986,0,0,1,9.528,23H2v2H9.528A4.974,4.974,0,0,0,14,22.236l2-4,2,4A4.974,4.974,0,0,0,22.472,25h4.114l-3.95,3.95,1.414,1.414,5.657-5.657a1,1,0,0,0,0-1.414Z"/></g><text x="0" y="47" fill="#000000" font-size="5px" font-weight="bold" font-family="'Helvetica Neue', Helvetica, Arial-Unicode, Arial, Sans-serif">Created by Komkrit Noenpoempisut</text><text x="0" y="52" fill="#000000" font-size="5px" font-weight="bold" font-family="'Helvetica Neue', Helvetica, Arial-Unicode, Arial, Sans-serif">from the Noun Project</text></svg>