<?xml version="1.0" encoding="UTF-8"?><svg id="Layer_1" xmlns="http://www.w3.org/2000/svg" viewBox="0 0 1238.63 1231.48"><defs><style>.cls-1{fill:#20e700;}</style></defs><circle class="cls-1" cx="623.54" cy="612.69" r="585.92"/><g><g><path d="M458.14,710.32h54.39c3.63,0,6.28,2.42,6.28,6.04s-2.66,6.04-6.28,6.04h-9.19l26.83,65.26,30.46-65.26h-16.92c-3.63,0-6.28-2.42-6.28-6.04s2.66-6.04,6.28-6.04h50.52c4.35,0,6.77,2.66,6.77,6.04,0,3.63-2.42,6.04-6.77,6.04h-16.68l-41.09,83.87v68.4h28.76c3.87,0,6.53,2.42,6.53,6.04s-2.66,6.04-6.53,6.04h-84.12c-4.11,0-6.53-2.42-6.53-6.04s2.42-6.04,6.53-6.04h28.76v-68.89l-36.74-83.39h-14.99c-3.63,0-6.28-2.42-6.28-6.04s2.66-6.04,6.28-6.04Z"/><path d="M601.95,798.55c0-55.59,32.39-89.43,67.92-89.43s67.68,33.36,67.68,89.43-31.91,89.43-67.68,89.43-67.92-33.36-67.92-89.43Zm109.01,0c0-41.58-14.02-77.35-41.09-77.35s-41.33,35.77-41.33,77.35,14.02,77.35,41.33,77.35,41.09-35.53,41.09-77.35Z"/><path d="M760.03,710.32h56.08c4.35,0,6.77,2.66,6.77,6.04s-2.42,6.04-6.77,6.04h-15.95v99.1c0,43.02,14.75,53.18,36.98,53.18,24.66,0,35.77-19.82,35.77-53.18v-99.1h-14.75c-4.35,0-6.77-2.66-6.77-6.04s2.42-6.04,6.77-6.04h43.99c4.35,0,6.77,2.66,6.77,6.04s-2.42,6.04-6.77,6.04h-14.74v92.58c0,52.21-18.37,71.79-50.28,71.79-41.57,0-61.15-19.58-61.15-71.79v-92.58h-15.95c-4.35,0-6.77-2.66-6.77-6.04s2.42-6.04,6.77-6.04Z"/></g><g><path d="M641.79,639.97c.93-4.43,2.18-8.79,3.21-13.19,.38-1.63,.81-3.32,.73-4.96-.18-3.69-.66-7.36-1.03-11.03-.33-3.26-2.14-6.56,.27-9.74-.77-2.81,.73-5.34,1.23-7.94,.95-4.84,2.32-9.68,4.18-14.24,2.13-5.21,1.33-10.89,3.25-16.06,.06-.17-.05-.41-.1-.62-.96-4.34-.35-8.69-.13-13.04,.03-.7,.39-1.39,.63-2.08,.51-1.47,1.32-2.91,1.5-4.42,.43-3.77,.61-7.56,.83-11.35,.29-4.84,.4-9.7,.84-14.53,.65-7.04,1.55-14.06,2.27-21.1,.14-1.36,.06-2.75-.09-4.11-.58-5.36-.92-10.73-.4-16.12,.53-5.55-.9-10.63-3.33-15.56-1.11-2.25-2.05-4.64-2.62-7.08-1.17-4.98-2.98-9.7-5.2-14.26-2.26-4.66-4.87-9.13-8.71-12.74-2.15-2.03-4.16-4.22-6.39-6.16-1.49-1.3-3.15-2.51-4.92-3.38-14.01-6.83-28.95-10.52-44.29-12.7-3.66-.52-7.36-.68-11.05-.95-1.84-.14-3.13-.65-4.46-2.31-2.28-2.84-5.3-4.92-9.32-5.05-3.48-.11-6.95-.58-10.42-.84-1.26-.09-2.58-.24-3.79,.02-4.76,1-9.51,2.17-13.77,4.59-3.85,2.18-7.57,4.6-11.3,6.99-1.59,1.02-3.18,2.12-4.54,3.41-5.07,4.85-8.96,10.65-12.73,16.5-3.37,5.22-4.34,11.39-5.95,17.26-.84,3.08-1.72,6.06-3.3,8.84-2.3,4.04-5.21,7.89-6.67,12.22-1.67,4.99-3.75,9.83-5.55,14.77,.79,1.38,1.26,3.07,1.26,5.06-.01,3.09-.1,6.19,.06,9.29,.07,1.48,.3,3.15,.61,4.42,.59,.51,1.15,1.06,1.71,1.63,1.98,2.02,4.18,3.8,6.91,4.9,4.09,1.64,8.35,2.95,11.76,6.01,.93,.83,2.55,1.36,3.81,1.29,4.52-.25,9.04-.68,13.52-1.34,2.26-.33,4.62-.98,6.61-2.07,5.68-3.11,10.13-7.53,12.58-13.64,2.59-6.45,5.11-12.93,7.44-19.48,1.2-3.37,1.95-6.87,.21-10.44-.45-.93-.43-2.36-.07-3.37,1.05-2.97,2.34-5.86,3.62-8.75,.28-.64,.81-1.25,1.37-1.67,3.36-2.5,6.9-4.78,9.23-8.42,.28-.44,.68-.82,1.08-1.16,2.65-2.23,5.52-3.31,8.91-1.64,.36,.18,.83,.27,1.22,.21,2.46-.38,5.01,.05,7.4-1.1,1.1-.53,2.45-.61,3.7-.73,9.01-.87,17.96-.17,26.77,1.7,4.62,.98,9.1,2.65,13.59,4.17,3.61,1.22,6.5,3.42,8.23,6.95,.51,1.04,1.05,2.08,1.64,3.08,2.82,4.8,3.92,9.92,3.09,15.46-.22,1.44-.57,3.22,.05,4.36,1.32,2.45-.44,4.42-.49,6.61-.03,1.45-1.22,2.86-2.1,4.73-.94-1.4-1.51-2.27-2.09-3.13-1.47-2.18-2.96-4.36-4.42-6.55-1.17-1.75-2.18-3.62-3.49-5.25-2.76-3.46-5.58-6.86-8.55-10.14-.87-.96-2.31-1.38-3.49-2.07-.89-.51-1.8-.93-2.74-1.29-.43-.54-.98-1.04-1.68-1.47-10.7-6.51-25-6.5-35.32,.88-8.09,5.79-12.65,14.68-16.45,23.78-.53,.76-1.08,1.52-1.59,2.29-1.74,2.58-3.5,5.39-2.74,8.46-.08,.2-.17,.41-.25,.62-.22,.54-.35,1.05-.42,1.54-.99,2.12-1.91,4.27-2.75,6.44-.12,.15-.23,.29-.36,.44,.08-.02,.14-.04,.21-.06-.87,2.31-1.65,4.64-2.3,6.99-.38,.23-.85,.4-1.46,.44-.18,.01-.34,.51-.46,.8-1.57,3.78-3.58,7.45-4.61,11.38-1.85,7.07-5.09,13.62-7.12,20.59-1.09,3.74-3.34,7.05-3.72,11.07-.64,6.73-1.51,13.43-2.24,20.15-.07,.69,.16,1.43,.36,2.11,.28,.97,.23,.91-.83,2.76-.56,.98-.77,2.16-1.1,3.26-.17,.56-.21,1.18-.43,1.72-.56,1.33-1.38,2.57-1.75,3.94-.54,2.03-1.07,4.14-1.07,6.21,0,2.13-1.77,3.92-.97,6.13,.07,.2-.26,.54-.37,.83-.47,1.24-1.02,2.46-1.36,3.73-.3,1.11-.45,2.28-.54,3.43-.33,4.41-.68,8.82-.86,13.23-.03,.78,.72,1.59,1.07,2.41,.07,.15-.04,.38-.07,.6h-2.69c1.63,1.98,1.82,3.7,.41,4.87,.27,2.59,.5,4.76,.71,6.94,.31,3.15,.36,6.35,.96,9.44,1.41,7.25,3.01,14.47,4.69,21.66,.79,3.38,1.69,6.76,4.11,9.5,.59,.67,.75,1.72,1.1,2.6,1.39,3.53,2.69,7.1,4.2,10.58,1.34,3.08,3.69,5.4,6.4,7.31,1.44,1.01,3.1,1.7,4.58,2.66,3.61,2.34,7.49,3.89,11.77,4.42,1.55,.19,3.14,.68,4.65,.49,3.62-.45,7.39-.72,9.97-3.92,.19-.23,.53-.34,.81-.49,4.01-2.24,6.83-5.57,8.86-9.65,.99-1.99,1.88-4.05,3.1-5.89,4.54-6.81,6.46-14.67,8.8-22.3,1.27-4.16,2.96-.1,4.46-4.14,.07-.18,.44-8.26,.98-8.54-.34,3-.76,5.7-.94,8.42-.35,5.17-.54,10.34-.85,15.51-.35,5.87,1.29,11.28,3.85,16.45,.37,.75,1.27,1.38,2.07,1.73,1.81,.78,3.78,1.2,5.55,2.04,3.43,1.64,8.64,1.11,11.46-1.39,.31-.28,.62-.59,.85-.94,1.48-2.18,3.07-4.3,4.39-6.58,2.63-4.57,5.11-9.22,7.64-13.84,1.01-1.85,2.08-3.68,2.95-5.6,1.68-3.74,3.15-7.59,4.87-11.31,1.7-3.67,2.81-7.49,3.65-11.44Zm-38.6-80.22c-1.1,2.39-2.12,4.86-3.55,7.04-3.59,5.46-7.29,10.85-11.14,16.13-4.22,5.78-6.46,5.38-11.07,.53-5.02-5.29-6.68-12.15-5.7-19.41,.83-6.13,3.36-11.71,6.29-17.1,.39-.73,.94-1.44,1.59-1.94,5.45-4.16,10.93-8.27,16.41-12.37,.49-.36,1.12-.53,1.91-.9,4.38,5.24,4.84,11.35,5.37,17.43,.23,2.61,.41,5.22,.48,7.84,.02,.91-.21,1.91-.6,2.75Z"/><path d="M366.93,631.67c2.28-6.47,4.61-12.92,7.07-19.32,2.38-6.2,4.66-12.47,7.51-18.46,3.05-6.42,6.94-12.45,8.69-19.45,.05-.2,.2-.38,.26-.58,2.82-9.26,5.82-18.46,6.07-28.31,.21-8.2-.2-16.25-3.44-23.91-1.6-3.78-3.08-7.7-6.69-10.17-4.05-2.78-8.77-3.52-13.47-4.27-.79-.13-1.75,.03-2.48,.37-3.8,1.81-7.93,3.22-11.23,5.7-6.18,4.64-10.6,10.8-12.99,18.29-1.77,5.52-3.64,11.01-5.47,16.52-3.33,10.06-5.71,20.28-6.31,30.94-.45,7.95-2.86,15.6-6.04,22.86-2.14,4.88-5.43,9.24-7.8,14.04-2.16,4.38-5.82,7.13-9.42,10.05-2.57,2.09-5.79,2.49-8.8,3.39-3.53,1.06-3.99,.94-5.4-2.31-3.66-8.43-7.35-16.89-7.6-26.31-.14-5.57-1.04-11.14,.51-16.7,1.81-6.51,3.39-13.1,5.09-19.64,.29-1.12,.57-2.28,1.11-3.29,1.88-3.48,2.82-7.24,3.88-11.02,2.19-7.85,3.43-15.88,5.05-23.84,.53-2.58,1.18-5.14,1.64-7.73,1.58-8.83,3.09-17.67,4.64-26.5,.09-.51,.14-1.13,.44-1.49,1.98-2.37,1.99-5.26,2.27-8.1,.26-2.6,.54-5.19,.84-7.79,5.03-1.79,10.16-3.29,15.42-4.36,13.91-2.83,26.95-.73,40.75,1.42,12.46,1.94,25.45,2.87,37.22-2.53,7.47-3.43,13.27-9.31,16.33-16.58,3.98-3.76,6.77-8.32,8.9-13.31,.32-.76,.11-1.79,0-2.67-.34-2.57-1.65-5.41-.94-7.62,1.07-3.36-1.01-5.23-2.25-7.36-1.06-1.81-3.03-2.95-5.62-2.88-2.72,.07-5.39-.78-7.76-2.34-1.14-.75-2.35-1.44-3.6-2-4.06-1.81-8.16-3.42-12.78-3-4.51,.41-9.05,.77-13.58,.82-9.68,.13-18.72,2.42-27.48,6.56-5.73,2.71-10.12,7.05-15.07,10.71-5.52,4.07-11.01,8.19-16.54,12.25-1.66,1.22-3.52,1.75-5.79,1.4,0-1.28-.08-2.41,.02-3.53,.21-2.52,.7-5.03,.72-7.55,.04-4.12-.1-8.21,.9-12.27,.58-2.34,.7-4.8,1.06-7.2,.39-2.6,.43-5.33,1.29-7.76,3.15-8.91,4.96-18.13,6.68-27.37,.86-4.6,2-9.05,3.78-13.36,0-.02,.02-.04,.02-.06,5.25-5.33,10.99-10.15,9.93-18.9-1.42-11.79-14.12-14.52-24-13.38-9.62,1.11-16.93,6-20.71,14.75-.75,1.02-1.29,2.17-1.59,3.5-.65,2.88-1.23,5.78-2.06,8.61-1.37,4.64-1.28,9.37-1.46,14.13-.22,5.9-.34,11.9-1.47,17.66-1.18,5.99-1.17,11.96-1.26,17.95-.08,5.48,.23,10.98,.47,16.46,.18,4.11,.5,8.22,.82,12.32,.33,4.28,.74,8.56,1.11,12.77-1.04,.75-2.32,1.23-2.83,2.15-.98,1.75-2.56,2.02-4.18,2.44-3.36,.88-6.72,1.79-10.09,2.66-.71,.19-1.44,.33-2.17,.43-4.5,.57-9,1.2-13.51,1.64-4.39,.43-8.71,.85-13.06-1.02-5.5-2.37-11.19-3.33-16.92-1.52-4.89,.31-9.64,1.39-13.59,4.62-5.56,4.55-6.39,11.49-6.08,18.29,.27,5.98,2.07,10.85,6.33,14.77,.39,.85,.91,1.67,1.5,2.37,6.19,7.4,13.72,12.18,23.8,11.5,8.85-.6,17.77-.68,26.42-2.96,6.84-1.8,13.16-4.6,17.85-10.21,.65-.77,1.43-1.44,2.6-2.6-.67,3.72-1.2,6.75-1.79,9.78-.07,.38-.42,.72-.67,1.06-3.41,4.61-3.67,10.25-5.09,15.5-.38,1.4-.47,2.87-.86,4.26-.62,2.21-1.69,4.33-2.01,6.57-1.33,9.27-2.07,18.64-4.86,27.66-.21,.69-.28,1.46-.25,2.18,.2,4.94-1.59,9.54-2.49,14.28-.63,3.31-1.83,6.51-2.47,9.81-1.75,9.12-3.02,18.3-5.54,27.29-2.36,8.42-3.91,17.08-5.78,25.64-1.08,4.95-2.37,9.87-3.1,14.87-1.73,11.77-.56,22.9,6.01,33.45,3.64,5.84,8.38,10.31,13.36,14.61,5.47,4.71,12.41,6.85,19.4,8.05,8.73,1.49,17.32,.43,25.25-3.78,8.71-4.63,15.99-10.94,21.56-19.16,2-2.95,4.44-5.62,6.29-8.66,1.74-2.85,4.14-5.27,5.07-8.68,1.03-3.75,2.53-7.37,3.89-11.03,1.21-3.26,2.58-6.46,3.72-9.75,1.7-4.88,3.18-9.84,4.9-14.72Zm-29.41,22.63c-.2-.1-.39-.2-.59-.3,.28-.51,.55-1.01,.83-1.52,.18,.09,.36,.18,.54,.28-.26,.51-.52,1.03-.78,1.54Z"/><path d="M854.04,524.79c6.97-3.34,14.1-6.28,21.61-8.12,12.74-3.13,24.01-9.22,34.46-16.92,7.47-5.51,14.92-11.07,22.08-16.97,8.36-6.9,15.89-14.55,19.19-25.38,.91-3,1.79-5.83,.21-8.84-.44-.83-.55-1.82-.9-2.7-.71-1.77-.54-3.42,.11-5.22,.47-1.3,.45-2.83,.37-4.25-.09-1.35-.45-2.71-.86-4.02-.89-2.81-1.59-5.74-2.93-8.33-2.36-4.59-7.05-5.7-11.58-6.87-.26-.07-.62,.1-.9,.23-2.36,1.17-4.82,2.17-7.04,3.56-7.11,4.44-13.37,9.96-19.5,15.64-4.64,4.3-8.99,8.91-14.16,12.67-3.33,2.42-6.11,5.53-7.91,9.35-2.21,4.68-4.44,9.35-6.57,14.07-3.62,8.01-7.47,15.83-13.45,22.46-3.13,3.47-6.28,6.68-10.49,8.94-7.44,3.99-14.78,8.17-22.66,11.25-1.64,.64-3.35,1.12-5.36,1.79,0-1.96-.18-3.64,.04-5.26,.39-2.82,.83-5.66,1.61-8.39,1.75-6.06,3.7-12.07,5.62-18.08,1.09-3.42,2.17-6.85,3.48-10.18,1.19-3.02,2.41-6.11,4.13-8.84,4.43-7.05,9.37-13.78,13.69-20.89,5.5-9.06,13.09-15.94,21.63-21.92,3.98-2.78,8.15-5.28,12.16-8.02,3.22-2.2,6.31-4.57,9.49-6.83,1.12-.79,2.42-1.33,3.46-2.21,3.62-3.06,7.25-6.12,10.71-9.35,4.5-4.19,7.67-9.24,9.01-15.32,.3-1.33,.42-2.72,.85-4.01,1.64-4.99,3.46-9.82,2.84-15.36-.41-3.71-1.02-7.33-2.18-10.8-1.09-3.27-3.32-5.89-6.64-7.29-3.67-1.54-7.36-3.03-11.04-4.53-.29-.12-.64-.24-.92-.18-2.42,.49-4.74-.5-7.26-.25-3.26,.33-6.52,.46-9.58,1.58-4.12,1.51-8.35,2.72-11.77,5.91-2.95,2.75-4.47,6.34-6.74,9.47-.39,.53-.57,1.46-.41,2.09,.38,1.46-.36,2.39-1.09,3.45-.98,1.43-2.21,2.85-2.65,4.47-.88,3.25-1.14,6.69-4.38,8.74-.23,.15-.35,.52-.46,.81-1.18,2.9-2.29,5.83-3.53,8.71-1.29,2.99-2.46,6.06-4.11,8.84-2.07,3.51-4.62,6.73-6.89,10.12-3.75,5.62-7.43,11.28-11.17,16.91-1.03,1.56-2.4,2.97-1.59,4.97-.96,.57-1.95,.86-2.45,1.52-2.29,3.01-4.53,6.07-6.63,9.22-3.44,5.17-6.89,10.35-10.09,15.67-1.9,3.15-3.48,6.52-4.91,9.92-2.29,5.44-4.4,10.97-6.47,16.5-1.74,4.64-3.65,9.26-4.89,14.04-2.42,9.38-1.58,18.94-.17,28.33,1.53,10.16,2.35,20.34,2.73,30.57,.39,10.75,.41,21.52,.66,32.28,.07,3.16,.48,6.32,.53,9.49,.1,7.38-.03,14.76,.11,22.14,.16,8.13,.61,16.25,.75,24.38,.18,10.36,.72,20.69,2.17,30.95,.57,4.07,1.66,8.06,1.32,12.24-.39,4.74-.42,9.51-.88,14.24-.86,8.7,1.07,17,3.35,25.26,.32,1.16,1.17,2.23,1.95,3.2,1.05,1.31,2.18,2.6,3.46,3.69,1.34,1.15,2.74,2.52,4.35,2.98,6.03,1.74,11.93,1.65,17.01-2.73,1.6-1.37,3.05-2.93,4.47-4.49,5.31-5.85,9.18-12.56,12.02-19.94,1.65-4.29,3.03-8.66,2.74-13.22-.45-7.09-1.97-14-4.66-20.62-1.23-3.02-2.7-6.01-3.45-9.16-1.56-6.57-2.81-13.22-4-19.87-1.03-5.71-1.63-11.51-2.72-17.21-1.39-7.26-3.12-14.45-4.63-21.69-.38-1.85-.59-3.76-.67-5.64-.16-4.1-.02-8.21-.3-12.3-.44-6.32-1.35-12.6-1.66-18.92-.36-7.48-.31-14.99-.4-22.48-.01-1.01,.18-2.01,.27-3.02,.26-.1,.52-.2,.78-.29,.77,.69,1.63,1.3,2.29,2.07,2.39,2.81,4.66,5.72,7.08,8.5,7.62,8.77,15.3,17.48,22.91,26.26,1.31,1.51,2.45,3.16,3.59,4.81,3.55,5.1,4.68,11.13,5.62,17.01,1.45,9.05,2.13,18.21,3.07,27.34,1.3,12.72,2.46,25.48,6.58,37.67,3.17,9.38,5.97,18.91,12.1,27.04,5.13,6.81,10.78,13.03,17.67,18.03,3.45,2.5,7.75,2.53,11.75,3.35,4.36-1.58,8.91-2.86,11.6-7.15,1.01-1.61,2.13-3.16,3.03-4.83,1.3-2.4,2.8-4.78,3.59-7.36,2.87-9.35,2.7-18.95,1.77-28.57-.31-3.25-.67-6.5-1.03-9.75-.38-3.46-.57-6.97-1.22-10.38-.74-3.93-1.52-7.91-3.93-11.28-2.03-2.83-4.25-5.52-6.11-8.45-2.56-4.03-5.61-7.69-9.08-10.85-3.81-3.46-8.09-6.43-12.33-9.38-3.49-2.43-6.69-4.83-8.78-8.83-1.57-3-4.17-5.59-6.75-7.88-4.33-3.86-8.99-7.35-13.55-10.96-2.41-1.91-4.48-4.01-5.99-6.8-5.1-9.42-12.3-17.1-20.59-23.8-3.31-2.67-6.35-5.59-8.21-9.5-.98-2.07-2.43-3.68-4.29-4.98-.49-.34-.91-.8-1.65-1.45,1.19-.73,2.11-1.41,3.11-1.89,2.66-1.29,5.37-2.47,8.04-3.75Zm56.3-159.16c.16,.05,.32,.1,.47,.14-.09,.43-.17,.86-.26,1.28-.22-.09-.65-.24-.64-.27,.11-.4,.28-.78,.43-1.16Zm5.3,327.18c0,.06-.02,.11-.03,.17-.07-.09-.14-.18-.21-.27,.08,.04,.16,.07,.24,.1Z"/><path d="M509.29,536.07c-.61-3.54-3.13-6.18-4.85-9.2-1.86-3.26-4.63-5.24-8.09-6.72-9.31-3.98-18.68-2.63-28-.56-7.8,1.74-14.84,5.43-21.47,9.87-1.54,1.03-3.16,1.95-5.36,3.3,.44-2.04,.57-3.4,1.02-4.64,4.56-12.38,9.21-24.71,13.75-37.1,3.46-9.46,8.43-18.15,13.25-26.94,2.43-4.43,4.82-8.91,6.88-13.52,2.89-6.5,4.53-13.35,5.02-20.48,.13-1.86,.79-3.71,1.41-5.49,2.88-8.3,6.8-16.13,10.94-23.87,4.2-7.87,9.63-14.51,17.23-19.38,2.9-1.86,5.38-4.35,5.65-8.24,.05-.76,.63-1.53,1.11-2.2,2.08-2.92,4.14-5.87,6.34-8.7,2.75-3.54,2.75-7.38,1.48-11.39-1.11-3.52-2.33-7-3.52-10.5-.69-2.02-1.41-3.98-3.9-4.54-.64-.14-1.13-.9-1.72-1.33-3.65-2.67-7.51-4.77-12.27-4.2-1.35,.16-2.77,.77-4.03,.51-2.4-.48-4.48-.13-6.69,.86-1.54,.69-3.25,.9-4.02,2.71-.13,.31-.64,.52-1.02,.67-2.63,1.07-5.3,2.04-7.89,3.2-1.01,.45-2.02,1.15-2.74,1.99-2.54,2.95-4.99,5.98-7.41,9.04-5.07,6.4-9.5,13.12-10.95,21.4-.78,4.46-1.58,8.95-2.83,13.3-1.26,4.39-.53,8.88-1.26,13.32-1.42,8.69-1.65,17.55-2.35,26.35-.43,5.47-1.73,10.66-3.85,15.6-3.56,8.3-5.08,17.18-7.88,25.68-1.25,3.8-2.13,7.79-3.86,11.37-4.3,8.9-7.39,18.16-9.54,27.78-.2,.89-.53,2.04-1.19,2.47-1.56,1.03-1.77,2.49-2.02,4.08-1.08,7.1-2.14,14.18-5.13,20.84-1.59,3.54-2.68,7.32-3.83,11.04-1.24,4.01-2.5,8.04-3.37,12.14-1.31,6.16-2.44,12.37-3.34,18.6-.47,3.27-.94,6.38-2.92,9.2-1.38,1.97-2.36,4.25-3.32,6.47-3.14,7.26-6.19,14.56-9.26,21.85-.37,.88-.79,1.75-.99,2.67-1.5,6.59-3.72,12.95-5.93,19.33-3.32,9.58-7.3,18.79-12.08,27.76-4.46,8.37-9.74,16.32-13.13,25.28-1.17,3.1-1.7,6.16-1.24,9.25,.66,4.48,1.74,8.91,2.9,13.29,.56,2.11,1.63,4.1,2.6,6.08,1.3,2.65,2.73,5.24,4.1,7.86,.19,.36,.53,.87,.41,1.14-.77,1.74,.63,2.47,1.49,3.45,2.95,3.36,6.29,6.19,10.37,8.16,3.88,1.88,7.54,4.14,12.11,4.07,1.51-.02,3.09,.62,4.52,1.23,3.71,1.57,7.36,3.27,11.55,1.95,3.22-1.02,6.51-2,8.83-4.62,5.33-6.03,7.78-13.15,7.9-21.18,.11-7.05-1.33-13.84-2.91-20.64-.54-2.35-.94-4.79-1-7.19-.16-6.44-.22-12.88-.09-19.31,.16-7.9,.64-15.79,.83-23.68,.14-5.91,.04-11.82,.04-17.73,0-1.87-.97-3.97,1.29-5.31,.2-.12,.21-.58,.26-.89,.37-2.4,.76-4.79,1.08-7.19,.58-4.29,1.13-8.58,1.68-12.87,.24-1.83,.54-3.53,2.73-4.17,.55-.16,.99-1.06,1.28-1.7,.68-1.54,1.24-3.14,1.84-4.72,1.33-3.49,3.34-6.55,5.82-9.34,1.96-2.2,3.77-4.53,5.65-6.8,1.01-1.22,1.98-2.47,3.02-3.66,1.73-1.97,3.46-3.94,5.27-5.83,.79-.83,1.7-1.6,2.7-2.15,1.94-1.06,4-1.91,5.97-2.92,1.09-.56,2.01-.57,2.82,.42,.73,.89,1.75,1.7,2.08,2.73,.55,1.71,1.6,2.83,2.89,3.98,1.95,1.73,3.52,3.66,2.86,6.73-.62,2.88-.68,5.87-1.06,8.8-1,7.74-1.79,15.52-3.13,23.2-1.17,6.75-3.13,13.36-4.45,20.09-1.18,6.03-2.82,11.91-4.89,17.67-2,5.56-4.43,11-6.02,16.67-1.74,6.18-2.79,12.55-4.02,18.87-1.16,5.96-1.16,11.95-.13,17.95,.96,5.55,3.61,10.09,7.97,13.64,4.47,3.63,9.41,6.38,14.92,8.15,4.48,1.43,8.8,.53,13.04-.72,4.39-1.29,7.79-4.06,10.3-7.95,2.05-3.19,4.62-6.1,6.26-9.47,3-6.2,4.55-12.93,5.53-19.73,.97-6.75,.83-13.42-1.81-19.94-1.09-2.69-1.33-5.75-1.77-8.66-.53-3.55-.91-7.12-1.24-10.7-.26-2.83-.52-5.68-.46-8.51,.13-5.59,.43-11.15-.28-16.77-.42-3.29-.06-6.77,.53-10.06,.87-4.87,2.36-9.63,3.41-14.47,.97-4.46,2.32-8.74,4.1-12.96,1.09-2.58,1.84-5.48,1.92-8.26,.18-6.63,.1-13.29-.33-19.9-.33-5.03-1.27-10.03-2.13-15.01Zm-23.58-5.88c-.03-.19-.06-.37-.09-.56,.78-.06,1.56-.13,2.33-.19,.01,.1,.03,.2,.04,.3-.76,.15-1.52,.3-2.28,.46Z"/><path d="M787.29,642.3c.83-2.9,1.22-5.88,1.21-8.98-.04-8.97,0-17.94,.12-26.91,.05-4.1,.57-8.21,.51-12.31-.1-8.02-.43-16.04-.71-24.05-.15-4.2-.46-8.4-.61-12.6-.23-6.75-.39-13.49-.58-20.24-.15-5.27-.39-10.53-.44-15.8-.05-5.17,.17-10.34,.13-15.51-.03-4.33,.04-8.69-.47-12.97-.89-7.42-2.24-14.77-2.21-22.29,.01-3.9-.66-7.81-.55-11.7,.24-7.89-1.15-15.36-5.13-22.2-1.89-3.25-3.43-6.84-6.85-8.97-2.33-1.45-4.53-3.14-6.94-4.44-3.26-1.76-6.76-3.42-10.54-2.87-4.16,.6-8.24,1.77-12.31,2.87-2.13,.58-4.38,1.19-6.17,2.39-4.19,2.83-8.21,5.93-12.18,9.08-8.22,6.52-14.33,14.88-20.1,23.5-1.67,2.5-3.42,4.93-6.11,7.12-.11-5.18,1.68-9.25,4.47-12.91,2.62-3.45,5.52-6.69,8.07-10.18,3.42-4.69,6.69-9.45,7.66-15.43,1.05-6.45,.28-12.69-2.06-18.65-1.9-4.83-5.05-8.63-10.32-10.51-2.12-.75-3.54-.62-4.67,.54-1.67-.27-3.07-.91-4.19-.58-1.94,.57-3.71,1.74-5.28,2.52-2.17,2.86-4.27,5.6-6.33,8.37-.94,1.27-1.89,2.56-2.66,3.93-2.19,3.9-3.24,8.05-3.78,12.58-.93,7.81-1.29,15.53-.45,23.34,.19,1.74,.14,3.62-.32,5.29-2.7,9.74-5.89,19.36-6.3,29.6-.08,1.99-.59,3.98-.63,5.97-.09,5.37-.25,10.76,.07,16.12,.16,2.65,.41,5.23-.06,7.86-1.52,8.54-2.45,17.11-2.3,25.82,.08,4.5-.75,9.02-1.12,13.53-.45,5.47-.62,10.97-1.34,16.4-1.87,14.11-3.25,28.31-7.9,41.91-2.63,7.69-4.72,15.58-7.57,23.18-4.05,10.79-7.53,21.75-10.45,32.89-2.07,7.91-3.24,15.94-2.05,24.15,.71,4.87,1.61,9.6,5.63,13.08,.93,.81,1.52,2,2.44,3.26,1.7-.27,3.39-.04,4.05,1.62,1.99,5,6.02,8.34,9.53,12.09,1.68,1.8,3.95,2.59,6.34,2.33,2.49-.27,5.01-.75,7.38-1.56,1.52-.52,3.24-1.53,4.04-2.83,1.01-1.63,2.2-2.05,3.83-2.19,1.37-.11,2.75-.23,4.09-.51,1.23-.26,2.69-.42,3.56-1.18,3.89-3.39,8.03-6.62,10.47-11.33,.98-1.9,2.22-3.91,.8-6.24-.26-.43,.05-1.21,.11-1.82,.11-1.26,.2-2.51,.35-3.77,.15-1.22,.22-2.48,.6-3.63,1.28-3.92,2.42-7.85,2.59-12.03,.26-6.23,.79-12.45,.9-18.68,.09-5.06,.19-10.2-.59-15.17-.66-4.22-1.17-8.3-.47-12.51,.24-1.46,.49-2.92,.64-4.39,.54-5.46,.97-10.94,1.58-16.39,.62-5.52,.46-10.97-1.05-16.34-.4-1.42-.82-2.84-1.17-4.27-1-3.99-1.76-8.06-3-11.98-1.33-4.19-2.92-8.33-4.73-12.33-1.88-4.16-2.04-8.63-2.45-12.96-.59-6.28-.44-12.64,1.94-18.72,1.38-3.53,1.97-7.36,4.14-10.58,1.53-2.26,3.08-4.51,4.65-6.74,3.52-5,7-10.03,10.63-14.94,1.11-1.49,2.57-2.79,4.08-3.9,1.51-1.12,3.29-1.88,4.93-2.83,3.19-1.85,6.67-3.14,10.28-2.29,5.29,1.24,10.77,1.86,15.69,4.61,6.62,3.7,5.28,2.05,7.04,9.06,1.13,4.49,1.64,9.13,2.42,13.71,1.06,6.26,1.89,12.58,1.22,18.92-.71,6.69-1.25,13.44-3.06,19.96-1.18,4.25-2.38,8.52-3.93,12.64-3,7.98-6.29,15.86-9.38,23.81-1.03,2.65-1.76,5.41-2.72,8.08-1.53,4.25-3.14,8.47-4.74,12.69-1.52,4.03-3.12,8.04-4.58,12.09-.71,1.97-1.21,4.02-1.78,6.04-.56,2.01-1.01,4.06-1.65,6.05-.68,2.09-1.88,4.06-2.25,6.19-1.06,6.12-3.21,11.95-4.24,18.11-1,5.97-1.7,11.85-1.62,17.89,.11,8.67,3.06,16.32,8.17,23.2,.07,.09,.14,.19,.22,.29,2,5.89,9.12,10.81,13.78,13.82,6.43,4.17,14.31,6,21.61,3.04,7.06-2.87,11.9-9.3,15.09-16.01,8.64-18.18,11.77-39.12,10.11-59.08-.15-1.83-.96-3.21-2.08-4.17Zm-29.67,68.46c.15-.19,.29-.4,.44-.59,.4,.07,.81,.13,1.21,.18-.53,.19-1.08,.32-1.65,.41Z"/></g></g><path d="M610.93,603.93c7.72,0,7.73-12,0-12s-7.73,12,0,12h0Z"/><path d="M948.14,838.28c-3.62,0-5.95-3.11-6.47-6.99l-11.91-110.25c-1.29-12.42,8.02-20.45,17.86-20.45s19.15,8.02,17.86,20.45l-10.87,109.99c-.52,4.14-2.85,7.25-6.47,7.25Zm-16.05,35.97c0-8.8,7.25-15.27,16.05-15.27s16.04,6.47,16.04,15.27-7.25,15.27-16.04,15.27-16.05-6.47-16.05-15.27Z"/></svg>