<?xml version="1.0" encoding="UTF-8"?><svg id="Layer_1" xmlns="http://www.w3.org/2000/svg" viewBox="0 0 1387.67 774.81"><path d="M169.93,536.55l50.94,160.48h12.36c4.45,0,7.17,2.47,7.17,6.18s-2.72,6.18-7.17,6.18h-55.39c-4.45,0-7.17-2.47-7.17-6.18s2.72-6.18,7.17-6.18h16.57l-11.13-38.33h-55.64l-10.63,38.33h14.09c4.45,0,7.17,2.47,7.17,6.18s-2.72,6.18-7.17,6.18h-45.25c-4.45,0-7.17-2.47-7.17-6.18s2.72-6.18,7.17-6.18h14.84l48.96-160.48c1.48-4.7,4.45-7.67,10.14-7.67s8.65,2.72,10.14,7.67Zm9.64,109.79l-23.74-80.12-24.48,80.12h48.22Z"/><path d="M300.24,697.03h16.81c4.45,0,6.92,2.72,6.92,6.18s-2.47,6.18-6.92,6.18h-58.36c-4.45,0-6.92-2.72-6.92-6.18s2.47-6.18,6.92-6.18h16.81v-153.55l-17.06-2.23c-3.71-.5-6.68-2.72-6.68-6.18s2.97-6.18,6.68-6.18h85.06c28.19,0,50.44,18.79,50.44,48.71,0,24.97-15.08,42.04-36.35,46.98,9.64,4.7,13.35,10.39,13.35,23.74v19.04c0,12.61,0,30.41,9.15,30.41,8.65,0,15.83-14.09,19.78-25.22,1.73-4.95,4.7-7.91,9.64-5.93,5.19,1.98,4.2,8.16-.74,20.28-4.95,12.12-15.83,24.48-30.66,24.48-25.47,0-31.9-18.3-31.9-36.6v-26.46c0-16.32-11.62-22.01-16.07-22.01h-29.92v70.72Zm30.91-155.78h-30.91v72.7h30.91c13.11,0,38.08-6.18,38.08-36.35s-24.97-36.35-38.08-36.35Z"/><path d="M553.7,548.91l.99-12.86c.5-4.7,3.21-7.17,6.43-7.17,3.71,0,6.18,2.97,6.18,7.17v55.14c0,4.45-3.21,7.17-7.17,7.17-4.95,0-6.18-3.21-7.42-7.17-9.15-28.93-17.06-49.95-43.77-49.95s-40.3,35.36-40.3,77.89,13.11,77.89,42.78,77.89c17.06,0,29.67-15.08,38.82-37.34l4.95-11.87c1.73-3.96,3.96-8.41,8.9-7.42,4.2,.74,7.67,3.71,5.44,11.62-8.65,30.66-25.22,57.37-58.11,57.37-36.84,0-69.98-27.94-69.98-90.25s33.13-90.25,69.98-90.25c19.29,0,32.64,9.89,42.28,20.03Z"/><path d="M708.95,608.51v-67.26h-12.86c-4.45,0-7.17-2.47-7.17-6.18s2.72-6.18,7.17-6.18h49.21c4.45,0,7.17,1.98,7.17,6.18s-2.72,6.18-7.17,6.18h-11.62v155.78h11.87c4.45,0,7.17,1.98,7.17,6.18s-2.72,6.18-7.17,6.18h-49.45c-4.45,0-7.17-2.47-7.17-6.18s2.72-6.18,7.17-6.18h12.86v-76.16h-64.54v76.16h12.86c4.45,0,7.17,2.47,7.17,6.18s-2.72,6.18-7.17,6.18h-49.21c-4.45,0-7.17-2.47-7.17-6.18s2.72-6.18,7.17-6.18h11.62v-155.78h-11.62c-4.45,0-7.17-2.47-7.17-6.18s2.72-6.18,7.17-6.18h49.21c4.45,0,7.17,2.47,7.17,6.18s-2.72,6.18-7.17,6.18h-12.86v67.26h64.54Z"/><path d="M886.25,697.03c4.7,0,7.42,2.47,7.42,6.18s-2.72,6.18-7.42,6.18h-93.96c-4.7,0-7.42-2.47-7.42-6.18s2.72-6.18,7.42-6.18h34.86v-155.78h-35.11c-4.45,0-7.17-2.47-7.17-6.18s2.72-6.18,7.17-6.18h93.96c4.45,0,7.17,2.47,7.17,6.18s-2.72,6.18-7.17,6.18h-34.12v155.78h34.37Z"/><path d="M1034.52,541.25h-17.06c-4.2,0-6.92-2.23-6.92-6.18,0-3.71,2.72-6.18,6.92-6.18h47.23c3.71,0,6.18,2.72,6.18,6.18s-2.47,6.18-6.18,6.18h-17.06l-48.71,164.43c-.74,2.47-2.72,3.71-4.7,3.71s-3.71-1.24-4.45-3.71l-52.17-164.43h-17.06c-4.45,0-6.92-2.72-6.92-6.18s2.47-6.18,6.92-6.18h65.28c4.2,0,6.92,2.47,6.92,6.18,0,3.96-2.72,6.18-6.92,6.18h-22.25l36.84,116.96,34.12-116.96Z"/><path d="M1181.4,697.03c23.99-.5,27.2-22.01,28.68-32.15l.99-13.85c.25-4.45,1.98-7.42,6.43-7.42s6.68,2.97,6.43,7.42l-3.96,50.69c-.25,4.2-2.23,7.67-6.68,7.67h-125.37c-4.45,0-7.17-2.47-7.17-6.18s2.72-6.18,7.17-6.18h21.76v-153.55l-21.76-1.98c-4.7-.49-7.17-3.21-7.17-6.43,0-3.71,2.97-6.18,7.17-6.18h125.37c4.45,0,6.43,3.46,6.68,7.67l3.96,50.69c.25,4.45-1.98,7.42-6.43,7.42s-6.18-2.97-6.43-7.42l-.99-13.85c-1.48-10.14-4.7-32.14-28.68-32.14h-46.98v68.25h20.52c13.11,0,16.32-4.7,18.05-14.34l1.24-7.17c.74-4.2,1.98-7.17,6.18-7.17s6.18,2.97,6.18,7.17v57.86c0,4.2-1.98,7.17-6.18,7.17s-5.44-2.97-6.18-7.17l-1.24-7.17c-1.73-9.64-4.95-16.81-18.05-16.81h-20.52v75.17h46.98Z"/><path d="M645.68,228.93c-39.81-33.81-102.58-16.91-150.66-10.96-33.43,7.55-85.13,8.46-88.67,54.62-4.6,82.85,19.43,112.81,76.56,31.14,22.41-50.37,131.57-39.45,80.46-7.96-14.93-5.11-30.58-9.08-45.48,1.4-25.2,16.74-35.83,48.51-61.04,65.43-21.52,10.65-46.55,10.22-52.43,38.94-5.33,43.14-7.93,101.19,26.25,129.62,22.16,18.43,61.65,10.87,87.89,1.02,18.66-13.99,7.05-43.6,22.82-58.72,31.54-30.24-6.39,47.66,16.28,61.73,11.1,10.86,46.65,3.71,44.24-16.11-7.02-33.69,1.02-68.92,9.45-101.67,2.89-47.12,56.8-162.8,34.34-188.49Zm-121.24,166.43c-9.09,8.16-19.71,16.8-32.75,13.42-49.45-22.59,54.25-58.18,32.75-13.42Zm58.4-99.69c-.25-.15-.22-.26,.04-.4-.01,.13-.02,.26-.04,.4Z"/><path d="M1136.17,267.75c-.99-1.49-3.49-5.63-3.85-6.15-.06-.08-.92-1.25-1.01-1.34-.45-.46-3.57-3.8-4.01-5.31-45.91-28.23-124.89-60.13-147.54,8.73-3.32,81.25-43.72,161.88-25.07,243.06,22.19,36.32,74.15,42.63,111.4,26.64,26.72-29.8,19.2-75.17,37.36-109.97,14.68-46.62,42.02-106.45,32.72-155.66Zm-76.53,20.1c7.79,0,7.78,12.09,0,12.09s-7.78-12.09,0-12.09Zm9.82,57.34c-11.86,.73-17.96-10.54-17.61-21.03,.25-7.77,12.35-7.78,12.09,0-.08,2.52,.08,5.63,1.53,7.47,1.15,1.46,1.87,1.69,3.85,1.48-.45,.03,.61-.24,.97-.34,.18-.11,.72-.4,.82-.47,.42-.28,1.25-1.02,1.73-1.69,1.82-2.54,1.88-5.79,1.7-8.78-.46-7.79,11.63-7.73,12.09,0,.64,10.73-5.28,22.62-17.17,23.36Zm12.87-46.41c-7.79,0-7.78-12.09,0-12.09s7.78,12.09,0,12.09Z"/><path d="M1051.82,300.26c-.11-.03-.21-.06-.32-.08,.1-.01,.19-.02,.29-.03,.01,.04,.02,.08,.03,.12Z"/><path d="M812.99,235.13c-25.9-34.29-82.31-26.85-119.39-17.07-21.7,11.06-31.26,68.46-34.1,71.29,.33,44.69-80.94,188.58,34.06,143.58,10.78-15.81,44.24,.42,37.98,18.58-5.64,21.26-24.74,31.61-42.77,13.02-31.65-32.62-88.26,5.25-61.91,50.87,28.2,46.24,97.05,59.48,142.25,30.31,41.33-37.36,17.21-109.11,23.22-159.86-25.79-41.42-60.04-.67-80.66-6.97-15.19-15.2-10.71-51.98,15.3-51.75,23.94-4.83,20.76,29.67,41.34,30.75,22.85,3.17,33.73-5.77,32.97-28.97,.86-31.21,20.95-63.68,11.71-93.78Z"/><path d="M898,389.37c-12.81,6.63-9.67,28.47-25.61,29.7-38.04,4.46-24.88-66.39-6.59-83.22,7.25-7.46,22.15-10.39,29.41-1.75,2.31,24.88,16.9,38.02,42.73,35.55,21.23-27.41,17.65-77.25,29.05-112.15,7.35-42.58-45.08-35.9-72.7-39.17-28.5-4.73-40.25,31.69-53.8,50.37-27.08,53.38-54.43,240.47-12.17,282.23,138.25,16.61,95.81-64.28,114.53-155.34-3.31-19.67-32.43-13.84-44.85-6.23Z"/><path d="M377.94,267.66c-25.83-48.55-86.26-4.05-105.93,33.71-18.26,39.06-3.35-76.3-87.04-57.93-98.12,31.57-85.72,162.65-110.68,244.29-9.96,62.48,85.89,98.81,112.46,38.96,.24-33.64-15.59-69.88-1.55-101.14,22.82-50.81,17.82,45.02,14.71,70.86-16.48,48.09,88.71,68.63,86.72,24.87-1.57-34.45-11.54-69.14-5.57-103.25,13.36-41.28,28.08,6.92,20.79,24.74-6.29,28.67-8.48,59.32,2.18,86.81,10.2,17.49,36.69,10.83,52.59,10.5,39.3,3.78,54.35-11.22,34.91-48.06-30.17-72.98,22.92-155.69-13.61-224.36Z"/><path d="M1243.17,246.03c34.76,7.37,101.25-3.02,55.27-47.01-17.88-13.03-40.77-19.78-62.89-22.01,9.3-31.18,33.55-65.02,15.4-97.19-51.93-54.12-84.13,39.62-75.61,83.43-17.19,.06-50.98-9.65-73.37,5.76-29.2,16.58-9.67,49.64,17.08,54.9,103.96,29.81-16.6,205.6-15.04,277.67,6.86,46.42,92.83,66.53,119.83,26.17,22.7-52.53,49.33-104.86,60.87-161.3,36.93-105.54-52.87-127.94-74-5.82-11.37,65.72-21.78-26.3-13.72-50.32,9.91-29.51,2.02-76.46,46.18-64.27Z"/></svg>